# xmcd
#
# Track frame offsets:
#	150
#	18712
#	36374
#	52611
#	66073
#	82160
#	97797
#	115384
#	131471
#	151983
#	166270
#	182132
#	198069
#	214906
#	231518
#	247155
#	264817
#	277529
#	295191
#
# Disc length: 4158 seconds
#
# Revision: 2
# Processed by: cddbd v1.5.2PL0 Copyright (c) Steve Scherf et al.
# Submitted via: audiograbber 1.83.01
#
DISCID=03103c13
DTITLE=Various Artist - Promo Country October 2008
DYEAR=2008
DGENRE=Country
TTITLE0=Keith Anderson - Somebody Needs A Hug (Album Version)
TTITLE1=Rascall Flatts - Here
TTITLE2=Whitney Duncan - When I Said I Would
TTITLE3=Chris Cagle - Never Ever Gone
TTITLE4=Blake Shelton - She Wouldn't Be Gone @
TTITLE5=Julianne Hough - My Hallelujah Song (Album Version)
TTITLE6=Taylor Swift - Love Story
TTITLE7=Josh Turner - Everything Is Fine
TTITLE8=Sugarland - Already Gone (Album Version)
TTITLE9=Josh Gracin - Unbelievable (Ann Marie)
TTITLE10=Laura Bryna - Hometown Heros
TTITLE11=Rick Huckaby - Ain't Enough Blacktop
TTITLE12=Duhks - You Don't See It (Album Version)
TTITLE13=Jeff Bates - Riverbank @
TTITLE14=Miranda Lambert - More Like Her
TTITLE15=LeAnn Rimes - What I Can Not Change
TTITLE16=Kate Russell - Powerfull Stuff
TTITLE17=Youngers - Highway 9 (Album Version) @
TTITLE18=Lance Wing - Heat
EXTD=
EXTT0=
EXTT1=
EXTT2=
EXTT3=
EXTT4=
EXTT5=
EXTT6=
EXTT7=
EXTT8=
EXTT9=
EXTT10=
EXTT11=
EXTT12=
EXTT13=
EXTT14=
EXTT15=
EXTT16=
EXTT17=
EXTT18=
PLAYORDER=
